<svg width="156px" height="57px" viewBox="0 0 156 57" version="1.1" xmlns="http://www.w3.org/2000/svg" xmlns:xlink="http://www.w3.org/1999/xlink">
    <!-- Generator: Sketch 52.2 (67145) - http://www.bohemiancoding.com/sketch -->
    <title>logotype/original</title>
    <desc>Created with Sketch.</desc>
    <defs>
        <polygon points="0.387194245 0.972615385 97.5953957 0.972615385 97.5953957 58 0.387194245 58"></polygon>
    </defs>
    <g stroke="none" stroke-width="1" fill="none" fill-rule="evenodd">
        <g transform="translate(0.000000, -1.000000)">
            <path d="M45.373554,4.59873077 C45.0110504,4.59873077 44.7753669,4.97684615 44.7753669,5.69069231 L44.7753669,29.5666154 C44.7753669,30.7634231 45.4364029,32.4666154 46.2455827,33.3533462 L52.5675108,40.2854615 C53.3766906,41.1721923 55.0219856,41.8971923 56.2262158,41.8971923 L71.8183597,41.8971923 C73.0214676,41.8971923 74.0068489,40.9201154 74.0068489,39.7210769 L74.0068489,31.1002692 C73.8800288,31.1125385 73.7565755,31.1181154 73.6376115,31.1181154 L49.6147338,31.1181154 C48.4105036,31.1181154 48.1546187,30.4611538 49.0468489,29.6569615 L57.1263022,23.374 C58.0174101,22.5698077 58.7469065,20.9346538 58.7469065,19.7378462 L58.7469065,13.6712692 L56.2262158,13.6712692 C55.0219856,13.6712692 53.3766906,12.9462692 52.5675108,12.0595385 L46.2455827,5.12742308 C45.9201151,4.7705 45.6182158,4.59873077 45.373554,4.59873077" fill="#6C9CC6"></path>
            <path d="M71.8183597,13.6712692 L58.7469065,13.6712692 L58.7469065,19.7389615 C58.7469065,20.9335385 58.0185324,22.5698077 57.1263022,23.374 L49.0479712,29.6569615 C48.155741,30.4600385 48.4105036,31.1181154 49.6158561,31.1181154 L73.6376115,31.1181154 C73.7565755,31.1181154 73.8789065,31.1125385 74.0057266,31.0991538 L74.0057266,15.8473846 C74.0057266,14.6494615 73.0214676,13.6712692 71.8183597,13.6712692" fill="#6A5D5E"></path>
            <g transform="translate(58.359712, 0.000000)">
                <mask fill="white">
                    <use xlink:href="#path-1"></use>
                </mask>
                <path d="M25.4964604,0.972615385 L2.57568345,0.972615385 C1.37257554,0.972615385 0.387194245,1.95080769 0.387194245,3.1465 L0.387194245,13.6712692 L13.4586475,13.6712692 C14.6617554,13.6712692 15.6460144,14.6494615 15.6460144,15.8473846 L15.6460144,31.0991538 C16.810964,30.9876154 18.2845468,30.3819615 19.0881151,29.6569615 L26.063223,23.3751154 C26.9554532,22.5698077 27.6849496,20.9346538 27.6849496,19.7378462 L27.6849496,3.1465 C27.6849496,1.95080769 26.7006906,0.972615385 25.4964604,0.972615385" fill="#91756E" mask="url(#mask-2)"></path>
                <path d="M68.5008345,57.8605769 L73.1168633,57.8605769 L73.1168633,56.0960385 L72.4861295,56.0960385 L72.2818705,57.2549231 L69.5400863,57.2549231 L73.1280863,51.2073077 L73.1280863,50.5280385 L68.7163165,50.5280385 L68.7163165,52.229 L69.3358273,52.229 L69.5400863,51.1336923 L72.0787338,51.1336923 L68.5008345,57.1913462 L68.5008345,57.8605769 Z M77.5959712,53.2529231 L77.5959712,56.7016923 C77.1997986,57.0541538 76.7385324,57.2660769 76.3098129,57.2660769 C75.8261007,57.2660769 75.6128633,57.0218077 75.6128633,56.3927308 L75.6128633,52.5279231 L73.9866475,52.5279231 L73.9866475,53.1246538 L74.6936978,53.2529231 L74.6936978,56.6381154 C74.6936978,57.5638846 75.2918849,58 76.0629065,58 C76.6958849,58 77.2098993,57.6798846 77.6599424,57.2549231 L77.7991079,57.8605769 L79.2233094,57.8605769 L79.2233094,57.3073462 L78.516259,57.2002692 L78.516259,52.5279231 L76.8900432,52.5279231 L76.8900432,53.1246538 L77.5959712,53.2529231 Z M75.4321727,51.8241154 C75.7632518,51.8241154 76.0629065,51.5385769 76.0629065,51.1861154 C76.0629065,50.8347692 75.7632518,50.5492308 75.4321727,50.5492308 C75.0999712,50.5492308 74.7980719,50.8347692 74.7980719,51.1861154 C74.7980719,51.5385769 75.0999712,51.8241154 75.4321727,51.8241154 Z M77.5623022,51.8241154 C77.8956259,51.8241154 78.1952806,51.5385769 78.1952806,51.1861154 C78.1952806,50.8347692 77.8956259,50.5492308 77.5623022,50.5492308 C77.231223,50.5492308 76.9315683,50.8347692 76.9315683,51.1861154 C76.9315683,51.5385769 77.231223,51.8241154 77.5623022,51.8241154 Z M81.922446,57.2549231 L81.922446,53.8998462 C82.319741,53.5384615 82.6609209,53.4012692 83.1547338,53.4012692 C83.2613525,53.4012692 83.3791942,53.4101923 83.4757122,53.4425385 L83.5823309,52.4643462 C83.5408058,52.4431538 83.4543885,52.432 83.3915396,52.432 C82.7147914,52.432 82.2759712,52.8803846 81.8797986,53.3577692 L81.7294101,52.5279231 L80.2951079,52.5279231 L80.2951079,53.1246538 L81.0021583,53.2529231 L81.0021583,57.275 L80.2951079,57.362 L80.2951079,57.8605769 L82.9078273,57.8605769 L82.9078273,57.362 L81.922446,57.2549231 Z M86.015482,57.275 L86.015482,52.5279231 L84.3858993,52.5279231 L84.3858993,53.1246538 L85.0940719,53.2529231 L85.0940719,57.275 L84.3858993,57.362 L84.3858993,57.8605769 L86.7214101,57.8605769 L86.7214101,57.362 L86.015482,57.275 Z M85.4689209,51.5385769 C85.8538705,51.5385769 86.1322014,51.2508077 86.1322014,50.8894231 C86.1322014,50.5057308 85.8538705,50.2291154 85.4790216,50.2291154 C85.1153957,50.2291154 84.8381871,50.5168846 84.8381871,50.8894231 C84.8381871,51.2508077 85.105295,51.5385769 85.4689209,51.5385769 Z M89.7101007,58 C90.5136691,58 91.0164604,57.7445769 91.4665036,57.3731538 L91.1567482,56.9370385 C90.8133237,57.159 90.3846043,57.3831923 89.8705899,57.3831923 C88.9604029,57.3831923 88.5631079,56.8299615 88.5631079,55.1892308 C88.5631079,53.6143077 88.8526619,52.9740769 89.7202014,52.9740769 C90.0423022,52.9740769 90.2880863,53.0376538 90.4811223,53.1882308 L90.6416115,54.0705 L91.3048921,54.0705 L91.3048921,52.9216538 C90.9199424,52.5926154 90.4272518,52.3907308 89.7202014,52.3907308 C88.4351655,52.3907308 87.5799712,53.2205769 87.5799712,55.1892308 C87.5799712,57.1065769 88.392518,58 89.7101007,58 Z M93.9512806,50.1555 L92.3250647,50.1555 L92.3250647,50.6975769 L93.0332374,50.8258462 L93.0332374,57.275 L92.3250647,57.3597692 L92.3250647,57.8605769 L94.6594532,57.8605769 L94.6594532,57.3597692 L93.9512806,57.275 L93.9512806,53.7414615 C94.3373525,53.4012692 94.9265612,53.1547692 95.3564029,53.1547692 C95.8389928,53.1547692 96.0095827,53.3577692 96.0095827,53.9656538 L96.0095827,57.8605769 L97.6369209,57.8605769 L97.6369209,57.3597692 L96.9298705,57.275 L96.9298705,53.6868077 C96.9298705,52.7844615 96.4057554,52.3907308 95.6347338,52.3907308 C95.0455252,52.3907308 94.4125468,52.6996923 93.9512806,53.1335769 L93.9512806,50.1555 Z" fill="#91756E" mask="url(#mask-2)"></path>
            </g>
            <path d="M44.5845755,57.8460769 L49.2006043,57.8460769 L49.2006043,56.0793077 L48.5687482,56.0793077 L48.3656115,57.2404231 L45.622705,57.2404231 L49.2118273,51.1939231 L49.2118273,50.5135385 L44.7989353,50.5135385 L44.7989353,52.2156154 L45.4195683,52.2156154 L45.622705,51.1191923 L48.1624748,51.1191923 L44.5845755,57.1779615 L44.5845755,57.8460769 Z M52.393554,57.9832692 C53.1870216,57.9832692 53.7223597,57.7836154 54.2453525,57.3586538 L53.9355971,56.9102692 C53.5495252,57.1668077 53.1533525,57.3698077 52.5113957,57.3698077 C51.5136691,57.3698077 51.1601439,56.8243846 51.1388201,55.3241923 L54.3317698,55.3241923 L54.3317698,54.984 C54.3317698,53.0555 53.5921727,52.3762308 52.3183597,52.3762308 C51.0546475,52.3762308 50.1859856,53.1514231 50.1859856,55.1758462 C50.1859856,57.1779615 50.989554,57.9832692 52.393554,57.9832692 Z M52.297036,52.9495385 C53.1746763,52.9495385 53.3576115,53.5027692 53.3576115,54.7508846 L51.1500432,54.7508846 C51.2252374,53.4503462 51.5686619,52.9495385 52.297036,52.9495385 Z M58.9825899,57.8460769 L60.6076835,57.8460769 L60.6076835,57.3452692 L59.9017554,57.2605 L59.9017554,53.6723077 C59.9017554,52.7688462 59.3776403,52.3762308 58.6066187,52.3762308 C57.9747626,52.3762308 57.3316835,52.7052692 56.8603165,53.1625769 L56.7211511,52.5134231 L55.2969496,52.5134231 L55.2969496,53.1101538 L56.0028777,53.2361923 L56.0028777,57.2605 L55.2969496,57.3452692 L55.2969496,57.8460769 L57.6313381,57.8460769 L57.6313381,57.3452692 L56.9242878,57.2605 L56.9242878,53.7269615 C57.3092374,53.3956923 57.898446,53.1413846 58.3282878,53.1413846 C58.8097554,53.1413846 58.9825899,53.3432692 58.9825899,53.9511538 L58.9825899,57.8460769 Z M61.4673669,53.1302308 L62.076777,53.1302308 L62.076777,56.8466923 C62.076777,57.6977308 62.6008921,57.9832692 63.2103022,57.9832692 C63.6928921,57.9832692 64.0149928,57.8795385 64.272,57.7200385 L64.1328345,57.1868846 C63.9622446,57.2738846 63.7366619,57.3363462 63.5110791,57.3363462 C63.157554,57.3363462 62.9981871,57.1445 62.9981871,56.7619231 L62.9981871,53.1302308 L64.1002878,53.1302308 L64.1002878,52.5134231 L62.9981871,52.5134231 L62.9981871,50.9385 L62.076777,51.1415 L62.076777,52.5134231 L61.4673669,52.5134231 L61.4673669,53.1302308 Z M66.756777,57.2381923 L66.756777,53.8864615 C67.1540719,53.5239615 67.4963741,53.3845385 67.9890647,53.3845385 C68.0968058,53.3845385 68.2135252,53.3956923 68.3111655,53.4280385 L68.4166619,52.4498462 C68.3751367,52.4286538 68.2898417,52.4175 68.2236259,52.4175 C67.5491223,52.4175 67.1103022,52.8647692 66.7141295,53.3432692 L66.5648633,52.5134231 L65.1305612,52.5134231 L65.1305612,53.1101538 L65.8364892,53.2361923 L65.8364892,57.2605 L65.1305612,57.3452692 L65.1305612,57.8460769 L67.7421583,57.8460769 L67.7421583,57.3452692 L66.756777,57.2381923 Z M70.8498129,57.3263077 C70.3234532,57.3263077 70.0675683,57.0597308 70.0675683,56.3258077 C70.0675683,55.4524615 70.463741,55.2282692 71.6320576,55.2282692 L72.0293525,55.2282692 L72.0293525,56.7942692 C71.7723453,57.0820385 71.3750504,57.3263077 70.8498129,57.3263077 Z M73.6028201,57.3776154 C73.0663597,57.391 72.9473957,57.2928462 72.9473957,56.8054231 L72.9473957,53.9823846 C72.9473957,52.8424615 72.4232806,52.3762308 71.3750504,52.3762308 C70.560259,52.3762308 69.8857554,52.6394615 69.3391942,52.9606923 L69.6175252,53.5139231 C70.1203165,53.2696538 70.6130072,53.0967692 71.1719137,53.0967692 C71.8688633,53.0967692 72.0293525,53.5027692 72.0293525,54.0995 L72.0293525,54.6750385 L71.5882878,54.6750385 C69.8318849,54.6750385 69.1158561,55.1646923 69.1158561,56.3994231 C69.1158561,57.4958462 69.7028201,57.9832692 70.6781007,57.9832692 C71.3211799,57.9832692 71.7723453,57.6876923 72.0821007,57.3698077 C72.1471942,57.7836154 72.4670504,57.9832692 72.9058705,57.9832692 C73.1617554,57.9832692 73.4737554,57.9208077 73.6768921,57.8248846 L73.6028201,57.3776154 Z M75.1875108,57.2605 L74.4804604,57.3452692 L74.4804604,57.8460769 L76.8148489,57.8460769 L76.8148489,57.3452692 L76.1077986,57.2605 L76.1077986,50.141 L74.4804604,50.141 L74.4804604,50.6808462 L75.1875108,50.8102308 L75.1875108,57.2605 Z M78.1133525,57.8460769 L78.7755108,57.8460769 L78.924777,57.304 C79.2693237,57.6765385 79.7945612,57.9832692 80.3826475,57.9832692 C81.539741,57.9832692 82.3747338,57.3363462 82.3747338,55.1435 C82.3747338,52.9495385 81.5307626,52.3762308 80.5016115,52.3762308 C79.9337266,52.3762308 79.4197122,52.6528462 79.032518,53.0555 L79.032518,50.141 L77.4063022,50.141 L77.4063022,50.6830769 L78.1133525,50.8102308 L78.1133525,57.8460769 Z M80.2535827,57.3363462 C79.8035396,57.3363462 79.3433957,57.0597308 79.032518,56.7619231 L79.032518,53.6533462 C79.4197122,53.2886154 79.8147626,53.0644231 80.3411223,53.0644231 C81.1761151,53.0644231 81.3904748,53.6834615 81.3904748,55.2081923 C81.3904748,56.7184231 81.1233669,57.3363462 80.2535827,57.3363462 Z M85.0211223,57.2605 L85.0211223,52.5134231 L83.3949065,52.5134231 L83.3949065,53.1101538 L84.1008345,53.2361923 L84.1008345,57.2605 L83.3949065,57.3452692 L83.3949065,57.8460769 L85.7281727,57.8460769 L85.7281727,57.3452692 L85.0211223,57.2605 Z M84.4756835,51.5240769 C84.8595108,51.5240769 85.1378417,51.2363077 85.1378417,50.8726923 C85.1378417,50.4923462 84.8595108,50.2146154 84.4857842,50.2146154 C84.1221583,50.2146154 83.8438273,50.5001538 83.8438273,50.8726923 C83.8438273,51.2363077 84.1109353,51.5240769 84.4756835,51.5240769 Z M86.9716835,57.8460769 L87.6338417,57.8460769 L87.7853525,57.304 C88.1265324,57.6765385 88.6528921,57.9832692 89.2421007,57.9832692 C90.4003165,57.9832692 91.2330647,57.3363462 91.2330647,55.1435 C91.2330647,52.9495385 90.3890935,52.3762308 89.3588201,52.3762308 C88.7909353,52.3762308 88.2780432,52.6528462 87.8908489,53.0555 L87.8908489,50.141 L86.2635108,50.141 L86.2635108,50.6830769 L86.9716835,50.8102308 L86.9716835,57.8460769 Z M89.113036,57.3363462 C88.6641151,57.3363462 88.2017266,57.0597308 87.8908489,56.7619231 L87.8908489,53.6533462 C88.2780432,53.2886154 88.6742158,53.0644231 89.1994532,53.0644231 C90.0355683,53.0644231 90.2488058,53.6834615 90.2488058,55.2081923 C90.2488058,56.7184231 89.9816978,57.3363462 89.113036,57.3363462 Z M92.9602878,57.2605 L92.2521151,57.3452692 L92.2521151,57.8460769 L94.5853813,57.8460769 L94.5853813,57.3452692 L93.8783309,57.2605 L93.8783309,50.141 L92.2521151,50.141 L92.2521151,50.6808462 L92.9602878,50.8102308 L92.9602878,57.2605 Z M97.1778993,57.2605 L97.1778993,52.5134231 L95.5528058,52.5134231 L95.5528058,53.1101538 L96.2598561,53.2361923 L96.2598561,57.2605 L95.5528058,57.3452692 L95.5528058,57.8460769 L97.8860719,57.8460769 L97.8860719,57.3452692 L97.1778993,57.2605 Z M96.6335827,51.5240769 C97.0174101,51.5240769 97.295741,51.2363077 97.295741,50.8726923 C97.295741,50.4923462 97.0174101,50.2146154 96.6436835,50.2146154 C96.2811799,50.2146154 96.0006043,50.5001538 96.0006043,50.8726923 C96.0006043,51.2363077 96.2688345,51.5240769 96.6335827,51.5240769 Z M100.938734,57.9832692 C102.247338,57.9832692 103.166504,57.1779615 103.166504,55.1758462 C103.166504,53.1737308 102.226014,52.3762308 100.91741,52.3762308 C99.6110504,52.3762308 98.7008633,53.1737308 98.7008633,55.1758462 C98.7008633,57.1779615 99.6312518,57.9832692 100.938734,57.9832692 Z M100.938734,57.3776154 C100.018446,57.3776154 99.6851223,56.7831154 99.6851223,55.1758462 C99.6851223,53.5763846 100.006101,52.9818846 100.928633,52.9818846 C101.851165,52.9818846 102.182245,53.5875385 102.182245,55.1948077 C102.182245,56.7831154 101.861266,57.3776154 100.938734,57.3776154 Z M104.089036,53.1302308 L104.700691,53.1302308 L104.700691,56.8466923 C104.700691,57.6977308 105.224806,57.9832692 105.834216,57.9832692 C106.315683,57.9832692 106.637784,57.8795385 106.894791,57.7200385 L106.754504,57.1868846 C106.583914,57.2738846 106.359453,57.3363462 106.132748,57.3363462 C105.779223,57.3363462 105.618734,57.1445 105.618734,56.7619231 L105.618734,53.1302308 L106.721957,53.1302308 L106.721957,52.5134231 L105.618734,52.5134231 L105.618734,50.9385 L104.700691,51.1415 L104.700691,52.5134231 L104.089036,52.5134231 L104.089036,53.1302308 Z M109.378446,50.141 L107.753353,50.141 L107.753353,50.6830769 L108.460403,50.8102308 L108.460403,57.2605 L107.753353,57.3452692 L107.753353,57.8460769 L110.086619,57.8460769 L110.086619,57.3452692 L109.378446,57.2605 L109.378446,53.7269615 C109.76564,53.3845385 110.355971,53.1413846 110.783568,53.1413846 C111.266158,53.1413846 111.436748,53.3432692 111.436748,53.9511538 L111.436748,57.8460769 L113.065209,57.8460769 L113.065209,57.3452692 L112.357036,57.2605 L112.357036,53.6723077 C112.357036,52.7688462 111.832921,52.3762308 111.061899,52.3762308 C110.473813,52.3762308 109.840835,52.6829615 109.378446,53.1190769 L109.378446,50.141 Z M116.086446,57.9832692 C116.879914,57.9832692 117.414129,57.7836154 117.938245,57.3586538 L117.628489,56.9102692 C117.24354,57.1668077 116.846245,57.3698077 116.204288,57.3698077 C115.206561,57.3698077 114.854158,56.8243846 114.831712,55.3241923 L118.02354,55.3241923 L118.02354,54.984 C118.02354,53.0555 117.285065,52.3762308 116.011252,52.3762308 C114.746417,52.3762308 113.88,53.1514231 113.88,55.1758462 C113.88,57.1779615 114.682446,57.9832692 116.086446,57.9832692 Z M115.989928,52.9495385 C116.868691,52.9495385 117.050504,53.5027692 117.050504,54.7508846 L114.842935,54.7508846 C114.918129,53.4503462 115.261554,52.9495385 115.989928,52.9495385 Z M120.722676,54.9181923 L122.714763,57.8460769 L123.99082,57.8460769 L123.99082,57.3240769 L123.347741,57.2381923 L121.655309,54.7598077 L123.036863,53.1949231 L123.72259,53.1101538 L123.72259,52.5134231 L121.645209,52.5134231 L121.645209,53.0889615 L122.287165,53.1625769 L120.722676,54.9181923 Z M120.61718,50.141 L118.988719,50.141 L118.988719,50.6830769 L119.69577,50.8102308 L119.69577,57.2605 L118.988719,57.3452692 L118.988719,57.8460769 L121.32423,57.8460769 L121.32423,57.3452692 L120.61718,57.2605 L120.61718,50.141 Z" fill="#91756E"></path>
            <path d="M-4.65405492e-13,57.8572308 L15.8289496,57.8572308 L15.8289496,51.7973462 L13.6629065,51.7973462 L12.9648345,55.7770385 L3.56218705,55.7770385 L15.8659856,35.0442692 L15.8659856,32.7086538 L0.733985612,32.7086538 L0.733985612,38.5476923 L2.86523741,38.5476923 L3.56218705,34.7877308 L12.2667626,34.7877308 L-4.65405492e-13,55.5573077 L-4.65405492e-13,57.8572308 Z M25.3045468,55.7402308 L25.3045468,45.8846923 L29.5648058,45.8846923 C33.0540432,45.8846923 34.1931799,47.5990385 34.1931799,50.6295385 C34.1931799,53.8775385 32.9440576,55.7402308 29.4177842,55.7402308 L25.3045468,55.7402308 Z M25.3045468,43.7297692 L25.3045468,34.8613462 L29.2718849,34.8613462 C32.2459856,34.8613462 33.0910791,36.8679231 33.0910791,39.4968846 C33.0910791,42.1247308 32.4300432,43.7297692 29.4548201,43.7297692 L25.3045468,43.7297692 Z M19.355223,32.7086538 L19.355223,34.4955 L21.9264173,34.8245385 L21.9264173,55.7770385 L19.355223,56.0670385 L19.355223,57.8572308 L29.7858993,57.8572308 C34.487223,57.8572308 37.7924029,55.8116154 37.7924029,50.8124615 C37.7924029,47.0893077 35.5522878,45.0459231 32.9810935,44.4971538 C35.3311942,43.8413077 36.6532662,42.0522308 36.6532662,39.4232692 C36.6532662,35.4826154 34.7071942,32.7086538 29.3818705,32.7086538 L19.355223,32.7086538 Z" fill="#91756E"></path>
        </g>
    </g>
</svg>
